<svg width="341" height="345" viewBox="0 0 341 345" fill="none" xmlns="http://www.w3.org/2000/svg">
<path fill-rule="evenodd" clip-rule="evenodd" d="M45.9511 257.76C13.3751 219.173 1.36931 165.17 16.1539 116.868C29.9903 71.6636 73.6119 46.6212 116.601 26.9402C158.685 7.67395 205.478 -8.25213 247.59 10.9151C290.877 30.6174 314.718 75.629 325.399 121.974C336.228 168.964 334.917 220.453 304.511 257.902C274.152 295.295 224.065 306.125 175.907 306.098C127.274 306.072 77.3152 294.911 45.9511 257.76Z" stroke="#FBD38D" stroke-width="2"/>
<path fill-rule="evenodd" clip-rule="evenodd" d="M47.9346 259.113C11.4216 226.374 -5.61709 177.467 5.02836 131.376C14.9911 88.2412 56.9773 61.0392 98.8054 38.8605C139.752 17.149 185.775 -1.90207 230.211 11.9764C275.888 26.2422 317.886 64.0554 332.891 105.993C348.105 148.513 337.645 197.996 310.179 235.473C282.756 272.893 232.933 287.527 184.089 291.93C134.762 296.377 83.0891 290.635 47.9346 259.113Z" stroke="#ED8936"/>
<path fill-rule="evenodd" clip-rule="evenodd" d="M52.7415 244.572C23.0965 205.907 0.196727 147.298 16.4249 101.223C31.6124 58.1039 89.0792 45.544 131.176 28.318C172.387 11.4548 213.226 8.05987 252.844 28.3511C293.567 49.2087 318.421 79.7569 326.72 125.005C335.135 170.883 331.706 220.602 300.94 255.531C270.221 290.408 221.684 298.78 175.456 296.739C128.771 294.678 81.2837 281.798 52.7415 244.572Z" stroke="#DD6B20" stroke-width="2"/>
<path d="M8.78604 310.967C8.88335 309.854 9.8723 309.037 10.9829 309.151L303.788 339.237C304.5 339.31 305.118 339.758 305.41 340.412L305.652 340.952C306.273 342.345 305.17 343.893 303.651 343.76L10.171 318.084C9.07063 317.988 8.25665 317.017 8.35292 315.917L8.78604 310.967Z" fill="#FBD38D"/>
<path d="M9.28414 311.01C9.35712 310.176 10.0988 309.563 10.9318 309.649L303.737 339.735C304.271 339.789 304.735 340.125 304.954 340.615L305.195 341.156C305.661 342.201 304.834 343.362 303.695 343.262L10.2146 317.586C9.3893 317.514 8.77882 316.786 8.85102 315.961L9.28414 311.01Z" stroke="#F2994A" stroke-opacity="0.3"/>
<path d="M314.645 311.887C314.742 312.999 313.91 313.975 312.796 314.056L19.215 335.272C18.5013 335.324 17.8145 334.99 17.4138 334.397L17.0822 333.907C16.2282 332.643 17.0457 330.927 18.5648 330.794L312.045 305.118C313.145 305.022 314.115 305.836 314.211 306.936L314.645 311.887Z" fill="#FBD38D"/>
<path d="M314.146 311.93C314.219 312.764 313.595 313.497 312.76 313.557L19.1789 334.773C18.6437 334.812 18.1285 334.562 17.828 334.117L17.4964 333.627C16.8559 332.679 17.4691 331.392 18.6084 331.292L312.088 305.616C312.914 305.544 313.641 306.154 313.713 306.98L314.146 311.93Z" stroke="#FC8019" stroke-opacity="0.3"/>
</svg>
