<svg width="183" height="29" viewBox="0 0 183 29" fill="none" xmlns="http://www.w3.org/2000/svg">
<path d="M10.6273 28.36C8.68333 28.36 6.79933 28.084 4.97533 27.532C3.17533 26.98 1.74733 26.248 0.691328 25.336L2.31133 21.7C3.34333 22.516 4.60333 23.188 6.09133 23.716C7.60333 24.22 9.11533 24.472 10.6273 24.472C12.4993 24.472 13.8913 24.172 14.8033 23.572C15.7393 22.972 16.2073 22.18 16.2073 21.196C16.2073 20.476 15.9433 19.888 15.4153 19.432C14.9113 18.952 14.2633 18.58 13.4713 18.316C12.6793 18.052 11.5993 17.752 10.2313 17.416C8.31133 16.96 6.75133 16.504 5.55133 16.048C4.37533 15.592 3.35533 14.884 2.49133 13.924C1.65133 12.94 1.23133 11.62 1.23133 9.964C1.23133 8.572 1.60333 7.312 2.34733 6.184C3.11533 5.032 4.25533 4.12 5.76733 3.448C7.30333 2.776 9.17533 2.44 11.3833 2.44C12.9193 2.44 14.4313 2.632 15.9193 3.016C17.4073 3.4 18.6913 3.952 19.7713 4.672L18.2953 8.308C17.1913 7.66 16.0393 7.168 14.8393 6.832C13.6393 6.496 12.4753 6.328 11.3473 6.328C9.49933 6.328 8.11933 6.64 7.20733 7.264C6.31933 7.888 5.87533 8.716 5.87533 9.748C5.87533 10.468 6.12733 11.056 6.63133 11.512C7.15933 11.968 7.81933 12.328 8.61133 12.592C9.40333 12.856 10.4833 13.156 11.8513 13.492C13.7233 13.924 15.2593 14.38 16.4593 14.86C17.6593 15.316 18.6793 16.024 19.5193 16.984C20.3833 17.944 20.8153 19.24 20.8153 20.872C20.8153 22.264 20.4313 23.524 19.6633 24.652C18.9193 25.78 17.7793 26.68 16.2433 27.352C14.7073 28.024 12.8353 28.36 10.6273 28.36ZM42.556 8.776V28H38.272V25.552C37.552 26.416 36.652 27.088 35.572 27.568C34.492 28.024 33.328 28.252 32.08 28.252C29.512 28.252 27.484 27.544 25.996 26.128C24.532 24.688 23.8 22.564 23.8 19.756V8.776H28.3V19.144C28.3 20.872 28.684 22.168 29.452 23.032C30.244 23.872 31.36 24.292 32.8 24.292C34.408 24.292 35.68 23.8 36.616 22.816C37.576 21.808 38.056 20.368 38.056 18.496V8.776H42.556ZM53.3079 28.252C51.7479 28.252 50.2239 28.048 48.7359 27.64C47.2479 27.232 46.0599 26.716 45.1719 26.092L46.8999 22.672C47.7639 23.248 48.7959 23.716 49.9959 24.076C51.2199 24.412 52.4199 24.58 53.5959 24.58C56.2839 24.58 57.6279 23.872 57.6279 22.456C57.6279 21.784 57.2799 21.316 56.5839 21.052C55.9119 20.788 54.8199 20.536 53.3079 20.296C51.7239 20.056 50.4279 19.78 49.4199 19.468C48.4359 19.156 47.5719 18.616 46.8279 17.848C46.1079 17.056 45.7479 15.964 45.7479 14.572C45.7479 12.748 46.5039 11.296 48.0159 10.216C49.5519 9.112 51.6159 8.56 54.2079 8.56C55.5279 8.56 56.8479 8.716 58.1679 9.028C59.4879 9.316 60.5679 9.712 61.4079 10.216L59.6799 13.636C58.0479 12.676 56.2119 12.196 54.1719 12.196C52.8519 12.196 51.8439 12.4 51.1479 12.808C50.4759 13.192 50.1399 13.708 50.1399 14.356C50.1399 15.076 50.4999 15.592 51.2199 15.904C51.9639 16.192 53.1039 16.468 54.6399 16.732C56.1759 16.972 57.4359 17.248 58.4199 17.56C59.4039 17.872 60.2439 18.4 60.9399 19.144C61.6599 19.888 62.0199 20.944 62.0199 22.312C62.0199 24.112 61.2399 25.552 59.6799 26.632C58.1199 27.712 55.9959 28.252 53.3079 28.252ZM75.7232 8.56C78.1472 8.56 80.0912 9.268 81.5552 10.684C83.0192 12.1 83.7512 14.2 83.7512 16.984V28H79.2512V17.56C79.2512 15.88 78.8552 14.62 78.0632 13.78C77.2712 12.916 76.1432 12.484 74.6792 12.484C73.0232 12.484 71.7152 12.988 70.7552 13.996C69.7952 14.98 69.3152 16.408 69.3152 18.28V28H64.8152V1.288H69.3152V11.008C70.0592 10.216 70.9712 9.616 72.0512 9.208C73.1552 8.776 74.3792 8.56 75.7232 8.56ZM88.3797 8.776H92.8797V28H88.3797V8.776ZM90.6477 5.608C89.8317 5.608 89.1477 5.356 88.5957 4.852C88.0437 4.324 87.7677 3.676 87.7677 2.908C87.7677 2.14 88.0437 1.504 88.5957 0.999998C89.1477 0.471999 89.8317 0.207999 90.6477 0.207999C91.4637 0.207999 92.1477 0.459999 92.6997 0.963998C93.2517 1.444 93.5277 2.056 93.5277 2.8C93.5277 3.592 93.2517 4.264 92.6997 4.816C92.1717 5.344 91.4877 5.608 90.6477 5.608ZM120.826 2.8L109.846 28H105.238L94.2224 2.8H99.2984L107.686 22.24L116.146 2.8H120.826ZM122.149 8.776H126.649V28H122.149V8.776ZM124.417 5.608C123.601 5.608 122.917 5.356 122.365 4.852C121.813 4.324 121.537 3.676 121.537 2.908C121.537 2.14 121.813 1.504 122.365 0.999998C122.917 0.471999 123.601 0.207999 124.417 0.207999C125.233 0.207999 125.917 0.459999 126.469 0.963998C127.021 1.444 127.297 2.056 127.297 2.8C127.297 3.592 127.021 4.264 126.469 4.816C125.941 5.344 125.257 5.608 124.417 5.608ZM149.548 18.496C149.548 18.808 149.524 19.252 149.476 19.828H134.392C134.656 21.244 135.34 22.372 136.444 23.212C137.572 24.028 138.964 24.436 140.62 24.436C142.732 24.436 144.472 23.74 145.84 22.348L148.252 25.12C147.388 26.152 146.296 26.932 144.976 27.46C143.656 27.988 142.168 28.252 140.512 28.252C138.4 28.252 136.54 27.832 134.932 26.992C133.324 26.152 132.076 24.988 131.188 23.5C130.324 21.988 129.892 20.284 129.892 18.388C129.892 16.516 130.312 14.836 131.152 13.348C132.016 11.836 133.204 10.66 134.716 9.82C136.228 8.98 137.932 8.56 139.828 8.56C141.7 8.56 143.368 8.98 144.832 9.82C146.32 10.636 147.472 11.8 148.288 13.312C149.128 14.8 149.548 16.528 149.548 18.496ZM139.828 12.16C138.388 12.16 137.164 12.592 136.156 13.456C135.172 14.296 134.572 15.424 134.356 16.84H145.264C145.072 15.448 144.484 14.32 143.5 13.456C142.516 12.592 141.292 12.16 139.828 12.16ZM182.427 8.776L175.335 28H171.015L166.047 14.752L161.007 28H156.687L149.631 8.776H153.879L158.955 22.96L164.247 8.776H168.027L173.211 23.032L178.431 8.776H182.427Z" fill="#000000"/>
</svg>
